HIERARCHY
ROOT Hips
{
  OFFSET 1.44925e-005 102.336 -0.101585
  CHANNELS 6 Xposition Yposition Zposition Zrotation Xrotation Yrotation
  JOINT LeftUpLeg
  {
    OFFSET 8.9458 -8.66707 0.101652
    CHANNELS 3 Zrotation Xrotation Yrotation
    JOINT LeftLeg
    {
      OFFSET 0 -44.4227 1.3727
      CHANNELS 3 Zrotation Xrotation Yrotation
      JOINT LeftFoot
      {
        OFFSET -0.253549 -42.0924 -1.46059
        CHANNELS 3 Zrotation Xrotation Yrotation
        JOINT LeftToes
        {
          OFFSET -0.04 -4.41509 8.4991
          CHANNELS 3 Zrotation Xrotation Yrotation
          End Site
          {
            OFFSET 0.08 -0.047448 9.77979
          }
        }
      }
    }
  }
  JOINT Spine
  {
    OFFSET 0 11.8905 0
    CHANNELS 3 Zrotation Xrotation Yrotation
    JOINT Spine1
    {
      OFFSET 0 25.6574 0.127663
      CHANNELS 3 Zrotation Xrotation Yrotation
      JOINT RightShoulder
      {
        OFFSET -8.99 -0.362252 -0.22
        CHANNELS 3 Zrotation Xrotation Yrotation
        JOINT RightArm
        {
          OFFSET -10.2827 -0.00338 0.322123
          CHANNELS 3 Zrotation Xrotation Yrotation
          JOINT RightForeArm
          {
            OFFSET -26.364 0.099144 -1.42434
            CHANNELS 3 Zrotation Xrotation Yrotation
            JOINT RightHand
            {
              OFFSET -22.0324 0.085362 1.02216
              CHANNELS 3 Zrotation Xrotation Yrotation
              End Site
              {
                OFFSET -13.3284 -0.6 1.50291
              }
            }
          }
        }
      }
      JOINT LeftShoulder1
      {
        OFFSET 8.99 -0.362252 -0.22
        CHANNELS 3 Zrotation Xrotation Yrotation
        JOINT LeftArm
        {
          OFFSET 10.2827 -0.00337999 0.322123
          CHANNELS 3 Zrotation Xrotation Yrotation
          JOINT LeftForeArm
          {
            OFFSET 26.2597 0.099144 -1.42434
            CHANNELS 3 Zrotation Xrotation Yrotation
            JOINT LeftHand
            {
              OFFSET 22.0902 0.085362 1.02216
              CHANNELS 3 Zrotation Xrotation Yrotation
              End Site
              {
                OFFSET 13.419 -0.6 1.50291
              }
            }
          }
        }
      }
      JOINT Head
      {
        OFFSET 0 8.73416 0.011341
        CHANNELS 3 Zrotation Xrotation Yrotation
        End Site
        {
          OFFSET -0.29 12.7742 2.51395
        }
      }
    }
  }
  JOINT RightUpLeg
  {
    OFFSET -8.9458 -8.66707 0.101652
    CHANNELS 3 Zrotation Xrotation Yrotation
    JOINT RightLeg
    {
      OFFSET 0 -44.4227 1.3727
      CHANNELS 3 Zrotation Xrotation Yrotation
      JOINT RightFoot
      {
        OFFSET 0.253549 -42.0924 -1.46059
        CHANNELS 3 Zrotation Xrotation Yrotation
        JOINT RightToes
        {
          OFFSET 0.04 -4.41509 8.4991
          CHANNELS 3 Zrotation Xrotation Yrotation
          End Site
          {
            OFFSET -0.08 -0.137448 9.77979
          }
        }
      }
    }
  }
}
MOTION
Frames:	19
Frame Time:	0.0333333
11.9888 80.9587 0.348753 -1.53144 1.19913 -90.1681 2.55385 -39.4442 -2.09207 7.17127 80.293 22.2356 -22.9806 -35.4215 -5.78683 -1.31695e-009 8.75232e-006 -1.46684e-008 0.298921 29.098 0.45978 0.513781 -1.25312 0.433022 36.6406 1.76322 0.110562 37.9823 -3.55496 -13.1038 12.9134 11.2273 10.5928 -7.76752 9.84038 -4.63446 -40.5778 3.27193 -3.46854 -34.5491 -11.0722 16.2248 -7.02604 23.599 -14.6767 5.82328 9.61819 -0.917488 3.27616 -34.2264 -6.70797 -2.42674 -37.7752 4.98587 -4.67086 78.6591 -13.7654 21.3982 -38.3397 5.82175 0.0462048 0.000530889 0.662642 
11.9519 80.9476 0.383028 -1.80079 1.11626 -90.6069 2.61673 -39.0548 -1.79604 7.22753 80.317 22.4202 -22.9863 -35.3298 -5.76776 -1.31695e-009 8.75232e-006 -1.46684e-008 0.445107 28.9398 0.378129 0.184906 -1.02644 0.450214 36.8953 1.76705 0.0978602 37.5355 -5.74044 -10.8058 12.9246 12.365 9.84364 -7.67542 9.85051 -4.80152 -41.176 3.33552 -3.50851 -33.4392 -13.5848 14.3578 -6.98199 24.6757 -14.1478 5.82328 9.61819 -0.917488 3.03834 -34.5719 -6.34095 -2.58597 -37.6167 4.9101 -4.62975 78.7321 -13.3508 21.0967 -38.275 5.71892 0.0462048 0.000530889 0.662642 
11.8943 81.1203 0.40993 -2.09886 1.05905 -91.0191 2.71882 -38.4069 -1.48447 6.98928 79.9477 22.8267 -22.9573 -35.2145 -5.7341 -1.31695e-009 8.75232e-006 -1.46684e-008 0.532274 28.8438 0.296018 0.0752041 -1.01034 0.414817 37.0159 1.77391 0.103352 37.0101 -10.2565 -8.1057 12.6725 15.3293 8.56207 -7.27056 9.8508 -4.7643 -41.8926 3.4203 -3.5722 -32.1533 -16.733 12.1235 -7.08643 26.2449 -13.204 5.82328 9.61819 -0.917488 2.838 -34.8167 -5.83558 -2.7709 -37.1988 4.73564 -4.43061 78.4055 -13.0942 20.8135 -38.1225 5.60389 0.0462048 0.000530889 0.662642 
11.7996 81.567 0.407814 -2.38937 1.02531 -91.4584 2.88704 -37.4616 -1.11606 6.43761 79.0422 23.5378 -22.8374 -34.9653 -5.64675 -1.31695e-009 8.75232e-006 -1.46684e-008 0.382442 28.8391 0.343515 0.304897 -1.40883 0.395742 36.7844 1.77858 0.134355 37.1517 -16.9698 -5.21427 12.0789 19.3169 7.12717 -7.09096 9.82471 -4.25183 -42.5718 3.5001 -3.62907 -31.2087 -19.2108 9.54068 -7.30669 27.0658 -12.366 5.82328 9.61819 -0.917488 2.70566 -34.772 -5.17123 -2.8656 -36.493 4.6172 -4.07037 77.515 -13.1336 20.3363 -37.7713 5.39359 0.0462048 0.000530889 0.662642 
11.667 82.3654 0.386389 -2.60265 0.957175 -92.0878 3.14222 -36.1996 -0.533757 5.64468 77.4296 24.5378 -22.4815 -34.3792 -5.42521 -1.31695e-009 8.75232e-006 -1.46684e-008 0.155737 28.6653 0.480673 0.461315 -1.92612 0.464822 36.4703 1.78271 0.171686 38.3484 -23.6497 -1.84431 11.282 21.9045 6.23611 -7.3121 9.78465 -3.55612 -42.9968 3.53755 -3.63826 -30.7934 -19.7161 6.71293 -7.17361 26.3342 -12.6689 5.82328 9.61819 -0.917488 2.64461 -34.4131 -4.42305 -2.77079 -35.5425 4.82637 -3.59616 75.9215 -13.4641 19.5402 -37.0298 5.02146 0.0462048 0.000530889 0.662642 
11.5001 83.5818 0.382784 -2.77874 0.82516 -92.9017 3.33944 -34.4684 0.144124 4.74081 74.8957 25.7437 -21.8658 -33.4203 -5.06489 -1.31695e-009 8.75232e-006 -1.46684e-008 0.105322 28.1772 0.5622 0.300731 -2.27327 0.575117 36.3173 1.78917 0.200554 40.3369 -28.1021 2.24714 10.5807 21.808 6.3062 -7.84866 9.75838 -3.24931 -43.1549 3.53887 -3.61622 -30.591 -17.9597 4.00858 -6.48472 23.7042 -14.6042 5.82328 9.61819 -0.917488 2.48774 -33.7345 -3.73841 -2.57388 -34.1922 5.36586 -3.06215 73.4428 -13.9391 18.5604 -35.8679 4.53671 0.0462048 0.000530889 0.662642 
11.2937 85.2173 0.412019 -3.03716 0.723859 -93.6474 3.31532 -32.1505 0.528527 3.90176 71.3782 27.0298 -21.0321 -32.107 -4.59553 -1.31695e-009 8.75232e-006 -1.46684e-008 0.306779 27.5354 0.522602 0.100403 -2.51821 0.627386 36.171 1.79729 0.232948 42.4909 -29.6633 6.66542 10.205 20.0449 7.23846 -8.73949 9.74364 -3.27792 -43.2724 3.54393 -3.60811 -30.1447 -14.8997 1.65355 -5.63663 19.9587 -17.4937 5.82328 9.61819 -0.917488 2.0743 -32.7113 -3.21868 -2.46976 -32.2027 5.83977 -2.54117 69.9787 -14.3729 17.5421 -34.3361 4.00569 0.0462048 0.000530889 0.662642 
11.0437 87.1719 0.44679 -3.37884 0.713748 -94.1636 3.15112 -29.3588 0.563852 3.22794 67.0266 28.2176 -19.9538 -30.4178 -4.02683 -1.31695e-009 8.75232e-006 -1.46684e-008 0.693551 26.8457 0.426683 0.0146896 -2.79475 0.64279 35.8881 1.80519 0.27759 44.1511 -28.6044 10.7629 10.0626 17.9888 8.73644 -9.81853 9.70923 -3.08868 -43.3708 3.55039 -3.60579 -29.407 -12.3328 -0.530127 -4.89735 17.4077 -20.4672 5.82328 9.61819 -0.917488 1.53351 -31.3733 -2.88171 -2.54333 -29.6031 5.93464 -2.09569 65.6212 -14.6487 16.462 -32.4643 3.4423 0.0462048 0.000530889 0.662642 
10.75 89.2978 0.459519 -3.68635 0.708508 -94.5491 3.02675 -26.2929 0.647802 2.70898 62.0188 29.0811 -18.6232 -28.4351 -3.39741 -1.31695e-009 8.75232e-006 -1.46684e-008 1.16459 25.9283 0.365857 -0.196278 -2.99226 0.724227 35.5838 1.81101 0.319843 44.8087 -25.4047 14.198 9.9577 15.892 10.6441 -10.6231 9.65163 -2.58314 -43.2095 3.5199 -3.56962 -28.7672 -11.7732 -2.73593 -3.99401 18.0807 -23.398 5.82328 9.61819 -0.917488 1.15214 -29.7675 -2.67595 -2.7821 -26.6489 5.72727 -1.7434 60.5658 -14.7199 15.2804 -30.3349 2.86497 0.0462048 0.000530889 0.662642 
10.4032 91.4707 0.452755 -3.94272 0.633613 -94.8655 2.97326 -22.9959 1.02114 2.30384 56.4637 29.4819 -17.1527 -26.3494 -2.78353 -1.31695e-009 8.75232e-006 -1.46684e-008 1.61536 24.6318 0.344744 -0.558476 -2.93993 0.85101 35.2779 1.81369 0.354603 44.2619 -20.2895 16.8567 9.80165 12.8878 13.2174 -10.9496 9.61143 -2.20773 -42.8283 3.46016 -3.50814 -28.4446 -12.7241 -4.82691 -2.64248 21.0871 -26.6807 5.82328 9.61819 -0.917488 0.981303 -27.8551 -2.5296 -3.18322 -23.4442 5.34837 -1.47124 54.9733 -14.5776 14.0828 -28.0748 2.32148 0.0462048 0.000530889 0.662642 
9.98958 93.5844 0.428814 -4.26559 0.556446 -94.9665 2.97311 -19.4273 1.55204 1.98958 50.5249 29.4301 -15.6608 -24.2801 -2.23247 -1.31695e-009 8.75232e-006 -1.46684e-008 1.96315 23.0802 0.29776 -0.726604 -2.67643 0.885025 34.8308 1.81628 0.399998 42.8497 -14.1035 18.7896 9.65167 8.70946 16.6939 -11.0392 9.6094 -2.21361 -42.5906 3.42028 -3.46381 -28.0818 -13.2494 -6.56246 -1.04662 23.6339 -30.3996 5.82328 9.61819 -0.917488 0.81089 -25.5551 -2.43552 -3.68762 -19.8985 4.73652 -1.26259 48.9877 -14.2645 12.9859 -25.7481 1.84368 0.0462048 0.000530889 0.662642 
9.51689 95.5257 0.366228 -4.69103 0.53327 -94.7957 3.0828 -15.6983 2.22844 1.74924 44.4684 28.9244 -14.1468 -22.2482 -1.74584 -1.31695e-009 8.75232e-006 -1.46684e-008 2.16698 21.4144 0.222822 -0.613657 -2.32224 0.80504 34.3264 1.81787 0.454709 41.6395 -9.89425 20.3161 9.70831 5.94073 20.4634 -11.1682 9.61228 -2.28774 -42.528 3.4034 -3.43902 -27.5453 -13.3866 -8.02752 0.355652 25.3133 -34.1896 5.82328 9.61819 -0.917488 0.505298 -22.9231 -2.44851 -4.15236 -16.0745 3.93934 -1.10711 42.8236 -13.9036 12.0163 -23.3739 1.43155 0.0462048 0.000530889 0.662642 
9.00984 97.2077 0.252337 -5.10768 0.484761 -94.5238 3.27778 -12.0323 3.27367 1.55889 38.5089 27.9091 -12.5899 -20.2726 -1.32114 -1.31695e-009 8.75232e-006 -1.46684e-008 2.21445 19.5702 0.205453 -0.493105 -1.86032 0.740764 33.9992 1.81665 0.487763 41.4717 -9.95519 21.7089 9.87432 7.15469 23.6578 -11.2967 9.58717 -2.04332 -42.2598 3.36664 -3.40489 -27.2429 -13.3099 -9.50813 1.54394 26.3599 -37.8539 5.82328 9.61819 -0.917488 0.139662 -20.1927 -2.56531 -4.5038 -12.2634 3.27124 -0.998831 36.7409 -13.6899 11.1533 -21.0122 1.07982 0.0462048 0.000530889 0.662642 
8.48797 98.6028 0.1053 -5.43723 0.336953 -94.2116 3.38774 -8.56649 4.5791 1.4029 32.7487 26.5086 -11.1121 -18.3572 -0.969018 -1.31695e-009 8.75232e-006 -1.46684e-008 2.09174 17.5048 0.257776 -0.396176 -1.24346 0.716464 33.7962 1.80944 0.490263 41.4321 -10.9514 22.9488 9.75599 9.43775 26.6507 -11.279 9.54949 -1.61321 -41.7256 3.30548 -3.36061 -27.3384 -13.2662 -11.0902 2.75034 27.1745 -41.4314 5.82328 9.61819 -0.917488 -0.174797 -17.5972 -2.69339 -4.78557 -8.66944 2.95137 -0.902328 30.9532 -13.8404 10.4141 -18.7471 0.7892 0.0462048 0.000530889 0.662642 
7.9746 99.7128 -0.0554126 -5.70838 0.124506 -93.6856 3.30942 -5.38151 5.58994 1.27779 27.341 25.1127 -9.92025 -16.4802 -0.696352 -1.31695e-009 8.75232e-006 -1.46684e-008 1.7959 15.3943 0.262229 -0.0971718 -0.562959 0.590479 33.4913 1.79739 0.490923 41.3343 -11.8299 23.9949 9.36186 11.66 29.7319 -11.2283 9.53441 -1.42414 -41.3496 3.2651 -3.33423 -27.3762 -13.3516 -12.6249 4.05974 27.8653 -45.0183 5.82328 9.61819 -0.917488 -0.394802 -15.2577 -2.7683 -5.0593 -5.3327 2.07115 -1.14282 25.6399 -13.5735 9.81184 -16.6567 0.556627 0.0462048 0.000530889 0.662642 
7.51208 100.533 -0.224703 -5.92593 -0.0989541 -92.9316 3.13012 -2.6433 5.91366 1.10439 22.5928 24.1605 -9.08013 -14.7176 -0.496367 -1.31695e-009 8.75232e-006 -1.46684e-008 1.42603 13.4428 0.160297 0.289546 0.0572658 0.342517 33.1225 1.78748 0.503516 41.1894 -12.6052 24.8075 9.11741 13.3076 32.865 -11.3455 9.54287 -1.56322 -41.338 3.2645 -3.33383 -27.0397 -13.5817 -14.0433 5.39427 28.3827 -48.5681 5.82328 9.61819 -0.917488 -0.499221 -13.2703 -2.81312 -5.24138 -2.39694 -1.25885 -2.13538 20.9728 -10.9661 9.28873 -14.8663 0.376304 0.0462048 0.000530889 0.662642 
7.14106 101.074 -0.392257 -6.04151 -0.323507 -92.2381 2.99378 -0.532011 5.67718 0.768554 18.8285 23.8141 -8.4614 -13.2702 -0.356512 -1.31695e-009 8.75232e-006 -1.46684e-008 1.17287 11.7376 0.0569699 0.365154 0.559508 0.168779 32.9021 1.78002 0.50715 40.8463 -13.244 25.3701 9.20013 14.2344 35.7489 -11.5743 9.54879 -1.70939 -41.4154 3.27442 -3.34091 -26.6574 -13.93 -15.4508 6.71483 28.7823 -51.7656 5.82328 9.61819 -0.917488 -0.504643 -11.7338 -2.86148 -5.46462 -0.151389 -4.23712 -2.48763 17.3158 -8.76168 8.82089 -13.5273 0.249003 0.0462048 0.000530889 0.662642 
6.87476 101.391 -0.548003 -6.07703 -0.534693 -91.7728 2.94502 0.926136 5.54421 0.414987 16.163 23.5099 -7.93706 -12.2629 -0.265092 -1.31695e-009 8.75232e-006 -1.46684e-008 1.11304 10.3884 0.0406825 0.0878276 0.848714 0.173523 32.8483 1.77059 0.488703 40.3141 -13.7253 25.6681 9.27026 14.9033 38.082 -11.7259 9.54281 -1.69668 -41.3647 3.27161 -3.34561 -26.603 -14.2822 -16.8792 7.99587 29.1812 -54.1754 5.82328 9.61819 -0.917488 -0.482476 -10.6056 -2.91167 -5.75187 1.35322 -5.73649 -2.2069 14.84 -7.8142 8.45203 -12.6737 0.170867 0.0462048 0.000530889 0.662642 
6.70088 101.575 -0.706355 -6.12657 -0.681452 -91.3827 2.99932 1.87772 5.52195 0.140619 14.4544 23.1055 -7.52393 -11.6093 -0.208393 -1.31695e-009 8.75232e-006 -1.46684e-008 1.14989 9.49433 0.0424891 -0.224012 0.861019 0.219654 32.8191 1.76278 0.470775 39.7326 -13.9292 25.711 9.12067 15.5057 39.6159 -11.8212 9.53951 -1.69671 -41.3078 3.26763 -3.34583 -26.7476 -14.5326 -18.1387 9.00292 29.551 -55.5211 5.82328 9.61819 -0.917488 -0.465166 -9.69508 -2.9668 -5.96638 2.38426 -6.4823 -1.7817 13.2687 -7.49632 8.21813 -12.1536 0.125808 0.0462048 0.000530889 0.662642 
